<?xml version="1.0" encoding="UTF-8"?>
<svg version="1.1" viewBox="0 0 432 144" xmlns="http://www.w3.org/2000/svg" xmlns:xlink="http://www.w3.org/1999/xlink">
<metadata>
<rdf:RDF xmlns:rdf="http://www.w3.org/1999/02/22-rdf-syntax-ns#" xmlns:cc="http://creativecommons.org/ns#" xmlns:dc="http://purl.org/dc/elements/1.1/" xmlns:xmpRights="http://ns.adobe.com/xap/1.0/rights/">
<rdf:Description>
<cc:attributionName>John Neffenger</cc:attributionName>
<cc:license rdf:resource="https://creativecommons.org/licenses/by-sa/4.0/"/>
<dc:title>Strictly NetBeans Featured Banner</dc:title>
<xmpRights:Marked>True</xmpRights:Marked>
<xmpRights:UsageTerms>This work is licensed under the Creative Commons Attribution-ShareAlike 4.0 International License.</xmpRights:UsageTerms>
<xmpRights:WebStatement rdf:resource="https://github.com/jgneff/strictly-netbeans"/>
</rdf:Description>
</rdf:RDF>
</metadata>
<style>
#surface1 {fill: #1a69c5;}
@media (prefers-color-scheme: dark) {
  #surface1 {fill: #2d8fe7;}
}
</style>
<defs>
<symbol id="ah" overflow="visible">
<path d="m30.406 0c-2.4922-4.4258-5.1875-8.7969-8.0938-13.109-2.8984-4.3125-5.9805-8.3828-9.25-12.219v25.328h-8.5938v-38.672h7.0781c1.2266 1.2305 2.5859 2.7422 4.0781 4.5312 1.4883 1.7812 3.0039 3.6875 4.5469 5.7188 1.5391 2.0234 3.0703 4.1211 4.5938 6.2969 1.5312 2.1797 2.9609 4.2734 4.2969 6.2812v-22.828h8.6562v38.672z"/>
</symbol>
<symbol id="p" overflow="visible">
<path d="m2.5156-14.453c0-2.6016 0.39453-4.8789 1.1875-6.8281 0.80078-1.957 1.8516-3.5859 3.1562-4.8906 1.3008-1.3008 2.7969-2.2852 4.4844-2.9531 1.6953-0.66406 3.4414-1 5.2344-1 4.1641 0 7.457 1.2773 9.875 3.8281 2.4141 2.543 3.625 6.2891 3.625 11.234 0 0.48047-0.023437 1.0117-0.0625 1.5938-0.03125 0.57422-0.070313 1.0859-0.10938 1.5312h-18.859c0.1875 1.7109 0.98438 3.0703 2.3906 4.0781 1.4141 1 3.3164 1.5 5.7031 1.5 1.5195 0 3.0156-0.14062 4.4844-0.42188s2.6719-0.625 3.6094-1.0312l1.1094 6.75c-0.44922 0.23047-1.0469 0.45312-1.7969 0.67188-0.74219 0.21875-1.5703 0.41016-2.4844 0.57812-0.90625 0.17578-1.8828 0.31641-2.9219 0.42188-1.043 0.11328-2.0859 0.17188-3.125 0.17188-2.6367 0-4.9336-0.39062-6.8906-1.1719-1.9492-0.78125-3.5625-1.8477-4.8438-3.2031-1.2812-1.3633-2.2305-2.9727-2.8438-4.8281-0.61719-1.8633-0.92188-3.875-0.92188-6.0312zm19.531-3.1719c-0.042969-0.70703-0.16797-1.3945-0.375-2.0625-0.19922-0.67578-0.51172-1.2734-0.9375-1.7969-0.42969-0.51953-0.96875-0.94531-1.625-1.2812-0.64844-0.33203-1.4531-0.5-2.4219-0.5-0.9375 0-1.7422 0.16406-2.4062 0.48438-0.66797 0.3125-1.2266 0.73047-1.6719 1.25-0.44922 0.52344-0.79297 1.125-1.0312 1.8125-0.24219 0.6875-0.41797 1.3867-0.53125 2.0938z"/>
</symbol>
<symbol id="ag" overflow="visible">
<path d="m3.625-36.656 8.3125-1.3438v8.6562h9.9844v6.9062h-9.9844v10.328c0 1.75 0.30469 3.1484 0.92188 4.1875 0.61328 1.043 1.8516 1.5625 3.7188 1.5625 0.88281 0 1.8008-0.082031 2.75-0.25 0.94531-0.16406 1.8125-0.39844 2.5938-0.70312l1.1719 6.4688c-1 0.41797-2.1172 0.77344-3.3438 1.0625-1.2305 0.30078-2.7344 0.45312-4.5156 0.45312-2.2734 0-4.1523-0.30859-5.6406-0.92188-1.4922-0.61328-2.6836-1.4688-3.5781-2.5625-0.88672-1.1016-1.5078-2.4375-1.8594-4-0.35547-1.5625-0.53125-3.2891-0.53125-5.1875z"/>
</symbol>
<symbol id="af" overflow="visible">
<path d="m17.359 0.5c-2.125 0-4.2422-0.070312-6.3438-0.20312-2.0938-0.125-4.2773-0.42578-6.5469-0.90625v-37.5c1.7812-0.33203 3.7266-0.58203 5.8438-0.75 2.125-0.16406 4.0977-0.25 5.9219-0.25 2.457 0 4.7188 0.17969 6.7812 0.53125 2.0625 0.35547 3.8359 0.96094 5.3281 1.8125 1.4883 0.85547 2.6484 1.9805 3.4844 3.375 0.84375 1.3984 1.2656 3.1172 1.2656 5.1562 0 3.0859-1.4922 5.5234-4.4688 7.3125 2.457 0.92969 4.1289 2.1953 5.0156 3.7969 0.89453 1.5938 1.3438 3.3984 1.3438 5.4062 0 4.0547-1.4805 7.1055-4.4375 9.1562-2.9609 2.043-7.3555 3.0625-13.188 3.0625zm-4.4219-17.344v9.9844c0.63281 0.074219 1.3203 0.13281 2.0625 0.17188 0.75 0.03125 1.5703 0.046875 2.4688 0.046875 2.6016 0 4.7031-0.36719 6.2969-1.1094 1.6016-0.75 2.4062-2.1289 2.4062-4.1406 0-1.7812-0.67188-3.0508-2.0156-3.8125-1.3359-0.75781-3.25-1.1406-5.75-1.1406zm0-6.6406h4.25c2.6758 0 4.5859-0.34375 5.7344-1.0312 1.1562-0.69531 1.7344-1.8047 1.7344-3.3281 0-1.5625-0.59375-2.6562-1.7812-3.2812-1.1875-0.63281-2.9375-0.95312-5.25-0.95312-0.74219 0-1.5391 0.011719-2.3906 0.03125-0.85547 0.011719-1.6211 0.054687-2.2969 0.125z"/>
</symbol>
<symbol id="ae" overflow="visible">
<path d="m15.125-5.7969c0.8125 0 1.5859-0.019531 2.3281-0.0625 0.75-0.039063 1.3477-0.097656 1.7969-0.17188v-6.2969c-0.33594-0.070313-0.83984-0.14453-1.5156-0.21875-0.66797-0.082031-1.2773-0.125-1.8281-0.125-0.78125 0-1.5156 0.046875-2.2031 0.14062s-1.293 0.27344-1.8125 0.53125c-0.52344 0.26172-0.93359 0.61719-1.2344 1.0625-0.30469 0.44922-0.45312 1.0078-0.45312 1.6719 0 1.3047 0.4375 2.2109 1.3125 2.7188 0.875 0.5 2.0781 0.75 3.6094 0.75zm-0.67188-24.328c2.457 0 4.5039 0.28125 6.1406 0.84375 1.6328 0.55469 2.9414 1.3516 3.9219 2.3906 0.98828 1.043 1.6875 2.3086 2.0938 3.7969 0.41406 1.4805 0.625 3.1328 0.625 4.9531v17.297c-1.1992 0.26172-2.8594 0.57031-4.9844 0.92188-2.1172 0.35156-4.6797 0.53125-7.6875 0.53125-1.8984 0-3.6172-0.16797-5.1562-0.5-1.543-0.33203-2.875-0.87891-4-1.6406-1.1172-0.75781-1.9688-1.7539-2.5625-2.9844-0.59375-1.2266-0.89062-2.7383-0.89062-4.5312 0-1.707 0.34375-3.1562 1.0312-4.3438s1.6094-2.1328 2.7656-2.8438c1.1562-0.70703 2.4727-1.2188 3.9531-1.5312 1.4883-0.32031 3.0352-0.48438 4.6406-0.48438 1.0703 0 2.0234 0.046875 2.8594 0.14062 0.84375 0.09375 1.5234 0.21484 2.0469 0.35938v-0.78125c0-1.4062-0.42969-2.5352-1.2812-3.3906-0.85547-0.86328-2.3438-1.2969-4.4688-1.2969-1.418 0-2.8125 0.10547-4.1875 0.3125-1.375 0.21094-2.5625 0.49609-3.5625 0.85938l-1.0625-6.6875c0.47656-0.14453 1.082-0.30078 1.8125-0.46875 0.72656-0.16406 1.5195-0.3125 2.375-0.4375 0.85156-0.13281 1.7539-0.25 2.7031-0.34375 0.94531-0.09375 1.9062-0.14062 2.875-0.14062z"/>
</symbol>
<symbol id="ad" overflow="visible">
<path d="m3.9062-28.344c1.4141-0.40625 3.2383-0.78516 5.4688-1.1406 2.2266-0.35156 4.5703-0.53125 7.0312-0.53125 2.4883 0 4.5625 0.32812 6.2188 0.98438 1.6562 0.64844 2.9688 1.5625 3.9375 2.75s1.6562 2.6055 2.0625 4.25c0.40625 1.6367 0.60938 3.4531 0.60938 5.4531v16.578h-8.3125v-15.562c0-2.6758-0.35547-4.5703-1.0625-5.6875-0.71094-1.125-2.0273-1.6875-3.9531-1.6875-0.59375 0-1.2305 0.03125-1.9062 0.09375-0.66797 0.054688-1.2617 0.11719-1.7812 0.1875v22.656h-8.3125z"/>
</symbol>
<symbol id="ac" overflow="visible">
<path d="m12.328-5.9688c1.5312 0 2.6094-0.14453 3.2344-0.4375 0.63281-0.30078 0.95312-0.87891 0.95312-1.7344 0-0.67578-0.41406-1.2656-1.2344-1.7656-0.8125-0.5-2.0586-1.0664-3.7344-1.7031-1.3047-0.47656-2.4844-0.97656-3.5469-1.5-1.0547-0.51953-1.9531-1.1406-2.7031-1.8594-0.74219-0.72656-1.3203-1.5938-1.7344-2.5938-0.40625-1.0078-0.60938-2.2227-0.60938-3.6406 0-2.75 1.0195-4.9219 3.0625-6.5156 2.0508-1.6016 4.8633-2.4062 8.4375-2.4062 1.7812 0 3.4883 0.15625 5.125 0.46875 1.6445 0.3125 2.9453 0.65625 3.9062 1.0312l-1.4375 6.4688c-0.96875-0.33203-2.0234-0.62891-3.1562-0.89062-1.1367-0.25781-2.4141-0.39062-3.8281-0.39062-2.6055 0-3.9062 0.72656-3.9062 2.1719 0 0.34375 0.054688 0.64844 0.17188 0.90625 0.11328 0.26172 0.33594 0.51172 0.67188 0.75 0.33203 0.24219 0.78516 0.5 1.3594 0.78125 0.58203 0.28125 1.3164 0.58984 2.2031 0.92188 1.8203 0.66797 3.3281 1.3281 4.5156 1.9844 1.1953 0.64844 2.1406 1.3516 2.8281 2.1094 0.6875 0.76172 1.1719 1.6094 1.4531 2.5469 0.28125 0.92969 0.42188 2.0078 0.42188 3.2344 0 2.8984-1.0898 5.0898-3.2656 6.5781-2.1797 1.4883-5.2578 2.2344-9.2344 2.2344-2.6055 0-4.7734-0.22656-6.5-0.67188-1.7305-0.44531-2.9336-0.81641-3.6094-1.1094l1.4062-6.75c1.4062 0.55469 2.8516 0.99219 4.3438 1.3125 1.4883 0.3125 2.957 0.46875 4.4062 0.46875z"/>
</symbol>
<symbol id="ab" overflow="visible">
<path d="m10.281 0c-0.17969-0.51953-0.36719-1.0312-0.5625-1.5312-0.1875-0.50781-0.37109-1.0234-0.54688-1.5469h-5.5156c-0.17969 0.52344-0.35938 1.043-0.54688 1.5625-0.17969 0.51172-0.35547 1.0156-0.53125 1.5156h-2.4844c0.48828-1.3945 0.95312-2.6875 1.3906-3.875 0.44531-1.1875 0.87891-2.3125 1.2969-3.375 0.42578-1.0625 0.84766-2.0703 1.2656-3.0312 0.41406-0.95703 0.84766-1.8984 1.2969-2.8281h2.25c0.4375 0.92969 0.86328 1.8711 1.2812 2.8281 0.41406 0.96094 0.83203 1.9688 1.25 3.0312 0.42578 1.0625 0.86328 2.1875 1.3125 3.375 0.44531 1.1875 0.91406 2.4805 1.4062 3.875zm-3.8594-10.578c-0.29297 0.66797-0.625 1.4805-1 2.4375-0.375 0.96094-0.76562 2-1.1719 3.125h4.3281c-0.40625-1.125-0.80469-2.1719-1.1875-3.1406-0.375-0.96875-0.69922-1.7734-0.96875-2.4219z"/>
</symbol>
<symbol id="n" overflow="visible">
<path d="m8.0156-4.9062c0-1.0195-0.23047-1.8125-0.6875-2.375-0.46094-0.57031-1.1992-0.85938-2.2188-0.85938-0.21875 0-0.44531 0.011719-0.67188 0.03125-0.23047 0.023437-0.46094 0.0625-0.6875 0.125v5.6562c0.19531 0.13672 0.46094 0.26562 0.79688 0.39062 0.33203 0.11719 0.69141 0.17188 1.0781 0.17188 0.83203 0 1.4375-0.28125 1.8125-0.84375 0.38281-0.57031 0.57812-1.3359 0.57812-2.2969zm2.3594-0.03125c0 0.76172-0.10156 1.4609-0.29688 2.0938-0.19922 0.625-0.48047 1.168-0.84375 1.625-0.36719 0.44922-0.82422 0.79688-1.375 1.0469-0.55469 0.25-1.1719 0.375-1.8594 0.375-0.46875 0-0.90234-0.058594-1.2969-0.17188-0.38672-0.10156-0.70312-0.22656-0.95312-0.375v3.8438h-2.2969v-13.078c0.46875-0.125 1.0391-0.24219 1.7188-0.35938 0.6875-0.11328 1.4102-0.17188 2.1719-0.17188 0.78125 0 1.4766 0.12109 2.0938 0.35938 0.61328 0.24219 1.1406 0.58594 1.5781 1.0312 0.4375 0.44922 0.76953 0.99609 1 1.6406 0.23828 0.63672 0.35938 1.3516 0.35938 2.1406z"/>
</symbol>
<symbol id="a" overflow="visible">
<path d="m4.9375-1.6094c0.70703 0 1.2422-0.035156 1.6094-0.10938v-2.5312c-0.125-0.039062-0.30859-0.078125-0.54688-0.10938-0.24219-0.039063-0.50781-0.0625-0.79688-0.0625-0.25 0-0.50781 0.023437-0.76562 0.0625-0.26172 0.03125-0.49609 0.10156-0.70312 0.20312-0.21094 0.09375-0.375 0.23438-0.5 0.42188-0.125 0.17969-0.1875 0.40625-0.1875 0.6875 0 0.54297 0.16406 0.91797 0.5 1.125 0.34375 0.21094 0.80469 0.3125 1.3906 0.3125zm-0.1875-8.5312c0.75781 0 1.3945 0.09375 1.9062 0.28125 0.51953 0.1875 0.92969 0.45312 1.2344 0.79688 0.3125 0.34375 0.53516 0.76172 0.67188 1.25 0.13281 0.48047 0.20312 1.0117 0.20312 1.5938v5.9844c-0.35547 0.085937-0.89062 0.17969-1.6094 0.28125-0.71094 0.10156-1.5117 0.15625-2.4062 0.15625-0.59375 0-1.1367-0.058594-1.625-0.17188-0.49219-0.10156-0.91406-0.28125-1.2656-0.53125-0.34375-0.25781-0.61719-0.58594-0.8125-0.98438-0.19922-0.40625-0.29688-0.90625-0.29688-1.5 0-0.57031 0.10938-1.0508 0.32812-1.4375 0.22656-0.39453 0.53125-0.71094 0.90625-0.95312 0.375-0.25 0.8125-0.42578 1.3125-0.53125 0.5-0.11328 1.0195-0.17188 1.5625-0.17188 0.25 0 0.51562 0.015625 0.79688 0.046875s0.57812 0.089844 0.89062 0.17188v-0.39062c0-0.25781-0.03125-0.50781-0.09375-0.75-0.0625-0.23828-0.17188-0.44531-0.32812-0.625-0.15625-0.1875-0.36719-0.33203-0.625-0.4375-0.26172-0.10156-0.58984-0.15625-0.98438-0.15625-0.52344 0-1.0078 0.042969-1.4531 0.125-0.4375 0.074219-0.79688 0.16406-1.0781 0.26562l-0.28125-1.8594c0.28906-0.10156 0.71094-0.20312 1.2656-0.29688 0.55078-0.10156 1.1445-0.15625 1.7812-0.15625z"/>
</symbol>
<symbol id="e" overflow="visible">
<path d="m0.90625-4.9375c0-0.72656 0.11328-1.4102 0.34375-2.0469 0.22656-0.64453 0.55078-1.1953 0.96875-1.6562 0.42578-0.46875 0.94141-0.83203 1.5469-1.0938 0.60156-0.26953 1.2852-0.40625 2.0469-0.40625 0.92578 0 1.8047 0.17188 2.6406 0.51562l-0.48438 1.8594c-0.27344-0.10156-0.57422-0.19141-0.90625-0.26562-0.33594-0.082031-0.6875-0.125-1.0625-0.125-0.89844 0-1.5781 0.28125-2.0469 0.84375s-0.70312 1.3555-0.70312 2.375c0 0.98047 0.21875 1.7617 0.65625 2.3438 0.44531 0.57422 1.1953 0.85938 2.25 0.85938 0.38281 0 0.76562-0.035156 1.1406-0.10938 0.38281-0.082031 0.71094-0.17969 0.98438-0.29688l0.32812 1.8906c-0.25 0.125-0.63281 0.24219-1.1406 0.34375-0.51172 0.10156-1.0391 0.15625-1.5781 0.15625-0.85547 0-1.5938-0.13281-2.2188-0.39062-0.61719-0.25781-1.1328-0.61719-1.5469-1.0781-0.40625-0.45703-0.71484-1.0039-0.92188-1.6406-0.19922-0.64453-0.29688-1.3359-0.29688-2.0781z"/>
</symbol>
<symbol id="l" overflow="visible">
<path d="m1.4531 0v-14.312l2.2969-0.375v4.9062c0.25-0.09375 0.53906-0.17188 0.875-0.23438 0.33203-0.0625 0.66406-0.09375 1-0.09375 0.78906 0 1.4453 0.11719 1.9688 0.34375 0.51953 0.21875 0.9375 0.52734 1.25 0.92188 0.32031 0.39844 0.54688 0.875 0.67188 1.4375 0.13281 0.55469 0.20312 1.168 0.20312 1.8438v5.5625h-2.2812v-5.2031c0-0.53125-0.039062-0.97656-0.10938-1.3438-0.0625-0.375-0.17969-0.67578-0.34375-0.90625-0.15625-0.23828-0.37109-0.41016-0.64062-0.51562-0.26172-0.11328-0.58594-0.17188-0.96875-0.17188-0.30469 0-0.61719 0.03125-0.9375 0.09375-0.3125 0.0625-0.54297 0.12109-0.6875 0.17188v7.875z"/>
</symbol>
<symbol id="c" overflow="visible">
<path d="m0.90625-4.9062c0-0.86328 0.12891-1.625 0.39062-2.2812 0.25781-0.65625 0.60156-1.2031 1.0312-1.6406 0.42578-0.4375 0.91406-0.76562 1.4688-0.98438 0.5625-0.21875 1.1289-0.32812 1.7031-0.32812 1.3633 0 2.4258 0.42188 3.1875 1.2656 0.76953 0.84375 1.1562 2.1055 1.1562 3.7812 0 0.125-0.007812 0.27344-0.015625 0.4375 0 0.15625-0.011719 0.29688-0.03125 0.42188h-6.5156c0.0625 0.79297 0.33594 1.4062 0.82812 1.8438 0.5 0.4375 1.2227 0.65625 2.1719 0.65625 0.55078 0 1.0547-0.050781 1.5156-0.15625 0.46875-0.10156 0.83203-0.21094 1.0938-0.32812l0.3125 1.875c-0.13672 0.0625-0.3125 0.13281-0.53125 0.20312-0.21875 0.074219-0.46875 0.13672-0.75 0.1875-0.28125 0.050781-0.58984 0.097656-0.92188 0.14062-0.32422 0.039062-0.65625 0.0625-1 0.0625-0.875 0-1.6367-0.13281-2.2812-0.39062-0.63672-0.25781-1.1641-0.61719-1.5781-1.0781-0.41797-0.45703-0.73047-1-0.9375-1.625-0.19922-0.625-0.29688-1.3125-0.29688-2.0625zm6.6406-1.0156c0-0.3125-0.046875-0.60938-0.14062-0.89062-0.085938-0.28906-0.21094-0.53906-0.375-0.75-0.16797-0.20703-0.375-0.36719-0.625-0.48438-0.25-0.125-0.54297-0.1875-0.875-0.1875-0.35547 0-0.66797 0.070313-0.9375 0.20312-0.26172 0.13672-0.48438 0.3125-0.67188 0.53125-0.17969 0.21094-0.32031 0.45312-0.42188 0.73438-0.10547 0.27344-0.17188 0.55469-0.20312 0.84375z"/>
</symbol>
<symbol id="s" overflow="visible">
<path d="m10.406 0c-0.42969-0.71875-0.90625-1.4883-1.4375-2.3125-0.53125-0.83203-1.0859-1.6641-1.6562-2.5-0.5625-0.84375-1.1367-1.6562-1.7188-2.4375-0.58594-0.78906-1.1406-1.5039-1.6719-2.1406v9.3906h-2.3438v-13.109h1.9375c0.50781 0.53125 1.0508 1.1641 1.625 1.8906 0.58203 0.71875 1.1641 1.4688 1.75 2.25 0.59375 0.78125 1.1602 1.5703 1.7031 2.3594 0.55078 0.78125 1.0391 1.5156 1.4688 2.2031v-8.7031h2.375v13.109z"/>
</symbol>
<symbol id="d" overflow="visible">
<path d="m1.3438-12.5 2.2969-0.39062v3h3.5156v1.9062h-3.5156v4.0312c0 0.79297 0.125 1.3594 0.375 1.7031s0.67578 0.51562 1.2812 0.51562c0.41406 0 0.78516-0.039063 1.1094-0.125 0.32031-0.09375 0.57812-0.17969 0.76562-0.26562l0.375 1.8281c-0.26172 0.11719-0.60938 0.23047-1.0469 0.34375-0.42969 0.125-0.92969 0.1875-1.5 0.1875-0.71094 0-1.3047-0.09375-1.7812-0.28125-0.46875-0.19531-0.84375-0.47266-1.125-0.82812-0.27344-0.36328-0.46484-0.80078-0.57812-1.3125-0.11719-0.50781-0.17188-1.0938-0.17188-1.75z"/>
</symbol>
<symbol id="r" overflow="visible">
<path d="m5.5312 0.15625c-0.69922 0-1.4023-0.027344-2.1094-0.078125-0.71094-0.042969-1.3242-0.12891-1.8438-0.26562v-12.734c0.26953-0.050781 0.5625-0.097656 0.875-0.14062 0.32031-0.039062 0.64453-0.070312 0.96875-0.09375 0.33203-0.03125 0.65625-0.050781 0.96875-0.0625 0.32031-0.019531 0.62891-0.03125 0.92188-0.03125 0.80078 0 1.5391 0.0625 2.2188 0.1875 0.67578 0.11719 1.2656 0.3125 1.7656 0.59375s0.88281 0.65234 1.1562 1.1094c0.28125 0.44922 0.42188 1.0078 0.42188 1.6719 0 0.61719-0.15234 1.1484-0.45312 1.5938-0.29297 0.4375-0.69922 0.79297-1.2188 1.0625 0.78906 0.26172 1.375 0.65234 1.75 1.1719 0.375 0.51172 0.5625 1.168 0.5625 1.9688 0 1.3438-0.49219 2.3555-1.4688 3.0312-0.98047 0.67969-2.4844 1.0156-4.5156 1.0156zm-1.6094-6.0625v4c0.25781 0.023438 0.53906 0.042969 0.84375 0.0625 0.30078 0.011719 0.57812 0.015625 0.82812 0.015625 0.5 0 0.95703-0.03125 1.375-0.09375 0.42578-0.070313 0.78906-0.1875 1.0938-0.34375 0.3125-0.15625 0.55469-0.36328 0.73438-0.625 0.1875-0.26953 0.28125-0.61328 0.28125-1.0312 0-0.73828-0.27344-1.2539-0.8125-1.5469-0.54297-0.28906-1.293-0.4375-2.25-0.4375zm0-1.875h1.6719c0.91406 0 1.6289-0.125 2.1406-0.375 0.51953-0.25781 0.78125-0.72656 0.78125-1.4062 0-0.625-0.27344-1.0664-0.8125-1.3281-0.53125-0.26953-1.2266-0.40625-2.0781-0.40625-0.36719 0-0.69531 0.007813-0.98438 0.015625-0.28125 0.011719-0.52344 0.03125-0.71875 0.0625z"/>
</symbol>
<symbol id="b" overflow="visible">
<path d="m1.4531-9.5781c0.44531-0.125 1.0195-0.24219 1.7188-0.35938 0.70703-0.11328 1.4922-0.17188 2.3594-0.17188 0.80078 0 1.4727 0.11719 2.0156 0.34375 0.53906 0.21875 0.97266 0.52734 1.2969 0.92188 0.32031 0.39844 0.54688 0.875 0.67188 1.4375 0.13281 0.5625 0.20312 1.1797 0.20312 1.8438v5.5625h-2.2812v-5.2031c0-0.53125-0.039062-0.97656-0.10938-1.3438-0.0625-0.375-0.17969-0.67578-0.34375-0.90625-0.15625-0.23828-0.37109-0.41016-0.64062-0.51562-0.27344-0.11328-0.60156-0.17188-0.98438-0.17188-0.29297 0-0.60156 0.023437-0.92188 0.0625-0.3125 0.042969-0.54297 0.074219-0.6875 0.09375v7.9844h-2.2969z"/>
</symbol>
<symbol id="k" overflow="visible">
<path d="m3.9375-1.6406c0.60156 0 1.0391-0.070313 1.3125-0.21875 0.28125-0.14453 0.42188-0.39453 0.42188-0.75 0-0.33203-0.15234-0.60156-0.45312-0.8125-0.29297-0.21875-0.77734-0.45312-1.4531-0.70312-0.41797-0.15625-0.80469-0.31641-1.1562-0.48438-0.34375-0.16406-0.64062-0.36328-0.89062-0.59375-0.25-0.22656-0.44922-0.50391-0.59375-0.82812-0.14844-0.32031-0.21875-0.71094-0.21875-1.1719 0-0.91406 0.33203-1.6328 1-2.1562 0.66406-0.51953 1.5781-0.78125 2.7344-0.78125 0.57031 0 1.125 0.054687 1.6562 0.15625 0.53125 0.10547 0.92969 0.21094 1.2031 0.3125l-0.42188 1.8594c-0.25-0.11328-0.57422-0.21875-0.96875-0.3125-0.38672-0.09375-0.83984-0.14062-1.3594-0.14062-0.46875 0-0.85156 0.078125-1.1406 0.23438-0.29297 0.15625-0.4375 0.40234-0.4375 0.73438 0 0.15625 0.023437 0.30469 0.078125 0.4375 0.0625 0.125 0.16016 0.24219 0.29688 0.34375 0.14453 0.10547 0.33203 0.21484 0.5625 0.32812 0.22656 0.10547 0.50391 0.21484 0.82812 0.32812 0.53906 0.19922 1 0.39844 1.375 0.59375 0.38281 0.19922 0.69531 0.42188 0.9375 0.67188 0.25 0.24219 0.42969 0.51562 0.54688 0.82812 0.11328 0.3125 0.17188 0.69531 0.17188 1.1406 0 0.9375-0.35547 1.6523-1.0625 2.1406-0.69922 0.48828-1.6953 0.73438-2.9844 0.73438-0.875 0-1.5781-0.074219-2.1094-0.21875s-0.90234-0.26562-1.1094-0.35938l0.39062-1.9062c0.34375 0.13672 0.75 0.27344 1.2188 0.40625 0.47656 0.125 1.0195 0.1875 1.625 0.1875z"/>
</symbol>
<symbol id="j" overflow="visible">
<path d="m3.7656 0h-2.2969v-9.8906h2.2969zm0.25-12.797c0 0.4375-0.14062 0.78125-0.42188 1.0312s-0.60938 0.375-0.98438 0.375c-0.38672 0-0.71875-0.125-1-0.375s-0.42188-0.59375-0.42188-1.0312 0.14062-0.78125 0.42188-1.0312 0.61328-0.375 1-0.375c0.375 0 0.70312 0.125 0.98438 0.375s0.42188 0.59375 0.42188 1.0312z"/>
</symbol>
<symbol id="i" overflow="visible">
<path d="m7.0938-7.8281c-0.1875-0.0625-0.44922-0.12891-0.78125-0.20312-0.33594-0.070312-0.72656-0.10938-1.1719-0.10938-0.25 0-0.51562 0.027344-0.79688 0.078125-0.28125 0.054688-0.48047 0.10156-0.59375 0.14062v7.9219h-2.2969v-9.4219c0.44531-0.16406 1-0.32031 1.6562-0.46875 0.66406-0.14453 1.3984-0.21875 2.2031-0.21875 0.15625 0 0.33203 0.011719 0.53125 0.03125 0.20703 0.023437 0.41016 0.046875 0.60938 0.078125 0.19531 0.03125 0.39062 0.070312 0.57812 0.10938 0.19531 0.042969 0.35156 0.085937 0.46875 0.125z"/>
</symbol>
<symbol id="aa" overflow="visible">
<path d="m4.9062 0.1875c-0.6875-0.011719-1.2578-0.085938-1.7031-0.21875-0.44922-0.14453-0.80859-0.34375-1.0781-0.59375-0.26172-0.25781-0.44531-0.58203-0.54688-0.96875-0.10547-0.38281-0.15625-0.82031-0.15625-1.3125v-11.406l2.2812-0.375v11.344c0 0.27344 0.019531 0.50781 0.0625 0.70312 0.050781 0.1875 0.13281 0.35156 0.25 0.48438 0.11328 0.125 0.26562 0.22656 0.45312 0.29688 0.19531 0.0625 0.44531 0.11719 0.75 0.15625z"/>
</symbol>
<symbol id="z" overflow="visible">
<path d="m9.5312-9.8906c-1.0234 3.7617-2.2031 7.168-3.5469 10.219-0.26172 0.5625-0.52344 1.0469-0.78125 1.4531-0.26172 0.40625-0.55859 0.73828-0.89062 1-0.32422 0.25781-0.6875 0.44531-1.0938 0.5625-0.40625 0.125-0.875 0.1875-1.4062 0.1875-0.35547 0-0.70312-0.039062-1.0469-0.10938-0.34375-0.074219-0.60547-0.15625-0.78125-0.25l0.40625-1.8281c0.45703 0.17578 0.90625 0.26562 1.3438 0.26562 0.59375 0 1.0547-0.14844 1.3906-0.4375 0.34375-0.28125 0.64062-0.71484 0.89062-1.2969-0.71875-1.3945-1.4141-2.9102-2.0781-4.5469-0.65625-1.6445-1.2461-3.3828-1.7656-5.2188h2.4375c0.125 0.53125 0.27344 1.1055 0.45312 1.7188 0.1875 0.61719 0.39062 1.2422 0.60938 1.875 0.21875 0.63672 0.44531 1.2734 0.6875 1.9062 0.23828 0.63672 0.47656 1.2266 0.71875 1.7656 0.39453-1.125 0.76953-2.3203 1.125-3.5938 0.35156-1.2695 0.67578-2.4922 0.96875-3.6719z"/>
</symbol>
<symbol id="y" overflow="visible">
<path d="m0.4375-6.4531h5.0938v2.0938h-5.0938z"/>
</symbol>
<symbol id="x" overflow="visible">
<path d="m10.406-4.9531c0 0.78125-0.11719 1.4961-0.34375 2.1406-0.23047 0.63672-0.55469 1.1836-0.96875 1.6406-0.40625 0.46094-0.90625 0.8125-1.5 1.0625-0.58594 0.25-1.2305 0.375-1.9375 0.375-0.71094 0-1.3555-0.125-1.9375-0.375-0.57422-0.25-1.0703-0.60156-1.4844-1.0625-0.41797-0.45703-0.74609-1.0039-0.98438-1.6406-0.23047-0.64453-0.34375-1.3594-0.34375-2.1406s0.11328-1.4883 0.34375-2.125c0.23828-0.64453 0.56641-1.1914 0.98438-1.6406 0.42578-0.45703 0.92578-0.80469 1.5-1.0469 0.58203-0.25 1.2227-0.375 1.9219-0.375 0.69531 0 1.3359 0.125 1.9219 0.375 0.58203 0.24219 1.082 0.58984 1.5 1.0469 0.41406 0.44922 0.73828 0.99609 0.96875 1.6406 0.23828 0.63672 0.35938 1.3438 0.35938 2.125zm-2.3438 0c0-0.98828-0.21484-1.7695-0.64062-2.3438-0.41797-0.57031-1.0078-0.85938-1.7656-0.85938-0.76172 0-1.3555 0.28906-1.7812 0.85938-0.41797 0.57422-0.625 1.3555-0.625 2.3438 0 0.99219 0.20703 1.7773 0.625 2.3594 0.42578 0.58594 1.0195 0.875 1.7812 0.875 0.75781 0 1.3477-0.28906 1.7656-0.875 0.42578-0.58203 0.64062-1.3672 0.64062-2.3594z"/>
</symbol>
<symbol id="w" overflow="visible">
<path d="m11.391 0h-2.2969v-9.8906h2.2969zm0.26562-12.797c0 0.4375-0.14062 0.78125-0.42188 1.0312-0.27344 0.25-0.60156 0.375-0.98438 0.375-0.38672 0-0.71875-0.125-1-0.375-0.27344-0.25-0.40625-0.59375-0.40625-1.0312s0.13281-0.78125 0.40625-1.0312c0.28125-0.25 0.61328-0.375 1-0.375 0.38281 0 0.71094 0.125 0.98438 0.375 0.28125 0.25 0.42188 0.59375 0.42188 1.0312zm-6.125-1.8906c0.47656 0 0.88281 0.042969 1.2188 0.125 0.33203 0.074219 0.59375 0.14844 0.78125 0.21875l-0.35938 1.8594c-0.17969-0.0625-0.39062-0.11719-0.64062-0.17188-0.24219-0.050781-0.50781-0.078125-0.79688-0.078125-0.76172 0-1.2812 0.20312-1.5625 0.60938s-0.42188 0.92969-0.42188 1.5625v0.67188h3.625v1.9062h-3.625v7.9844h-2.2969v-10.594c0-1.2891 0.33203-2.2969 1-3.0156 0.67578-0.71875 1.7031-1.0781 3.0781-1.0781z"/>
</symbol>
<symbol id="o" overflow="visible">
<path d="m3.25-4.9688c0 1 0.23828 1.793 0.71875 2.375 0.47656 0.57422 1.1406 0.85938 1.9844 0.85938 0.375 0 0.6875-0.015625 0.9375-0.046875 0.25781-0.03125 0.47266-0.066406 0.64062-0.10938v-5.6719c-0.19922-0.14453-0.46875-0.27344-0.8125-0.39062-0.33594-0.125-0.6875-0.1875-1.0625-0.1875-0.83594 0-1.4453 0.28906-1.8281 0.85938-0.38672 0.5625-0.57812 1.3359-0.57812 2.3125zm6.5781 4.6719c-0.46094 0.13672-1.0312 0.26172-1.7188 0.375-0.6875 0.11328-1.4141 0.17188-2.1719 0.17188-0.78125 0-1.4844-0.12109-2.1094-0.35938-0.61719-0.23828-1.1406-0.58203-1.5781-1.0312-0.42969-0.44531-0.76172-0.98828-1-1.625-0.23047-0.64453-0.34375-1.3633-0.34375-2.1562 0-0.78125 0.097656-1.4883 0.29688-2.125 0.19531-0.63281 0.48438-1.1758 0.85938-1.625 0.375-0.45703 0.83203-0.8125 1.375-1.0625 0.53906-0.25 1.1641-0.375 1.875-0.375 0.47656 0 0.89844 0.058594 1.2656 0.17188 0.375 0.11719 0.69141 0.24219 0.95312 0.375v-4.75l2.2969-0.375z"/>
</symbol>
<symbol id="h" overflow="visible">
<path d="m7.0938-5.2031c0-1.0312-0.13281-1.7734-0.39062-2.2344-0.26172-0.46875-0.74219-0.70312-1.4375-0.70312-0.26172 0-0.54297 0.023437-0.84375 0.0625-0.30469 0.042969-0.52734 0.074219-0.67188 0.09375v7.9844h-2.2969v-9.5781c0.44531-0.125 1.0234-0.24219 1.7344-0.35938 0.70703-0.11328 1.4609-0.17188 2.2656-0.17188 0.67578 0 1.2344 0.089844 1.6719 0.26562 0.4375 0.17969 0.80078 0.41406 1.0938 0.70312 0.13281-0.10156 0.30469-0.20703 0.51562-0.3125 0.21875-0.11328 0.45703-0.21875 0.71875-0.3125 0.26953-0.10156 0.55078-0.1875 0.84375-0.25 0.30078-0.0625 0.60156-0.09375 0.90625-0.09375 0.76953 0 1.3984 0.11719 1.8906 0.34375 0.5 0.21875 0.89062 0.52734 1.1719 0.92188 0.28906 0.39844 0.48828 0.875 0.59375 1.4375 0.11328 0.5625 0.17188 1.1797 0.17188 1.8438v5.5625h-2.2969v-5.2031c0-1.0312-0.125-1.7734-0.375-2.2344-0.25-0.46875-0.73438-0.70312-1.4531-0.70312-0.375 0-0.73047 0.0625-1.0625 0.1875-0.32422 0.11719-0.5625 0.23047-0.71875 0.34375 0.09375 0.3125 0.16016 0.64844 0.20312 1 0.039063 0.35547 0.0625 0.73438 0.0625 1.1406v5.4688h-2.2969z"/>
</symbol>
<symbol id="g" overflow="visible">
<path d="m5.3438-6.375c-0.375 0-0.73438 0.03125-1.0781 0.09375-0.33594 0.0625-0.64062 0.15625-0.92188 0.28125-0.011719 0.10547-0.023438 0.21875-0.03125 0.34375v0.34375c0 0.5 0.03125 0.97656 0.09375 1.4219 0.070312 0.44922 0.19141 0.83984 0.35938 1.1719 0.17578 0.33594 0.41016 0.60156 0.70312 0.79688 0.30078 0.19922 0.67188 0.29688 1.1094 0.29688 0.36328 0 0.67578-0.070312 0.9375-0.21875 0.25781-0.15625 0.47266-0.35156 0.64062-0.59375 0.16406-0.23828 0.28516-0.5 0.35938-0.78125 0.070313-0.28906 0.10938-0.56641 0.10938-0.82812 0-0.75781-0.18359-1.3359-0.54688-1.7344-0.36719-0.39453-0.94531-0.59375-1.7344-0.59375zm0.28125-1.8125c0.78125 0 1.4414 0.10938 1.9844 0.32812 0.55078 0.21875 0.99219 0.52344 1.3281 0.90625 0.34375 0.375 0.59375 0.8125 0.75 1.3125 0.16406 0.49219 0.25 1.0078 0.25 1.5469 0 0.5-0.089844 1.0117-0.26562 1.5312-0.16797 0.51172-0.43359 0.98047-0.79688 1.4062-0.35547 0.41797-0.80469 0.76172-1.3438 1.0312-0.54297 0.26953-1.1875 0.40625-1.9375 0.40625-1.5 0-2.6484-0.49219-3.4375-1.4844-0.78125-0.98828-1.1719-2.3516-1.1719-4.0938 0-1.2578 0.17969-2.3789 0.54688-3.3594 0.375-0.97656 0.90625-1.8008 1.5938-2.4688 0.6875-0.66406 1.5195-1.1719 2.5-1.5156 0.97656-0.35156 2.082-0.53516 3.3125-0.54688l0.125 1.8906c-0.67969 0.011719-1.3125 0.085937-1.9062 0.21875-0.59375 0.13672-1.125 0.34375-1.5938 0.625-0.46875 0.27344-0.87109 0.63281-1.2031 1.0781-0.33594 0.4375-0.58984 0.97656-0.76562 1.6094 0.61328-0.28125 1.2891-0.42188 2.0312-0.42188z"/>
</symbol>
<symbol id="m" overflow="visible">
<path d="m6.375-10.297c-0.30469 0.36719-0.61719 0.75781-0.9375 1.1719-0.32422 0.41797-0.63672 0.85547-0.9375 1.3125-0.30469 0.44922-0.59375 0.91406-0.875 1.3906-0.27344 0.46875-0.52344 0.9375-0.75 1.4062h3.5zm2.2344-2.8125v8.0938h1.4688v1.875h-1.4688v3.1406h-2.2344v-3.1406h-5.75v-1.625c0.25-0.55078 0.58203-1.1875 1-1.9062 0.42578-0.72656 0.89844-1.4688 1.4219-2.2188 0.51953-0.75781 1.0664-1.5039 1.6406-2.2344 0.58203-0.72656 1.1641-1.3906 1.75-1.9844z"/>
</symbol>
<symbol id="f" overflow="visible">
<path d="m3.5156-5.5625c0 0.4375-0.15234 0.79688-0.45312 1.0781-0.29297 0.28125-0.64844 0.42188-1.0625 0.42188-0.42969 0-0.78906-0.14062-1.0781-0.42188-0.29297-0.28125-0.4375-0.64062-0.4375-1.0781s0.14453-0.79688 0.4375-1.0781c0.28906-0.28906 0.64844-0.4375 1.0781-0.4375 0.41406 0 0.76953 0.14844 1.0625 0.4375 0.30078 0.28125 0.45312 0.64062 0.45312 1.0781z"/>
</symbol>
<symbol id="v" overflow="visible">
<path d="m5.4844-14.688c0.53125 0 1 0.046875 1.4062 0.14062s0.70703 0.18359 0.90625 0.26562l-0.4375 1.8906c-0.21875-0.10156-0.46875-0.1875-0.75-0.25s-0.58594-0.09375-0.90625-0.09375c-0.375 0-0.6875 0.058594-0.9375 0.17188-0.25 0.10547-0.45312 0.25-0.60938 0.4375-0.14844 0.1875-0.25 0.41797-0.3125 0.6875-0.0625 0.27344-0.09375 0.5625-0.09375 0.875v0.67188h3.5938v1.9062h-3.5938v7.9844h-2.2969v-10.594c0-1.2695 0.33203-2.2695 1-3 0.67578-0.72656 1.6875-1.0938 3.0312-1.0938z"/>
</symbol>
<symbol id="u" overflow="visible">
<path d="m4.4688 0.28125c-0.34375 0-0.69922-0.023438-1.0625-0.0625-0.35547-0.042969-0.69531-0.10156-1.0156-0.17188-0.32422-0.070312-0.62109-0.14453-0.89062-0.21875-0.26172-0.082031-0.46094-0.16406-0.59375-0.25l0.45312-1.9375c0.26953 0.125 0.65625 0.26562 1.1562 0.42188 0.50781 0.15625 1.1328 0.23438 1.875 0.23438 1 0 1.7188-0.19141 2.1562-0.57812 0.4375-0.38281 0.65625-0.89844 0.65625-1.5469 0-0.41406-0.085937-0.75781-0.25-1.0312-0.16797-0.28125-0.40234-0.50391-0.70312-0.67188-0.29297-0.17578-0.63281-0.29688-1.0156-0.35938-0.38672-0.070313-0.79297-0.10938-1.2188-0.10938h-0.78125v-1.8594h0.95312c0.28125 0 0.56641-0.023437 0.85938-0.078125 0.30078-0.050781 0.57031-0.14844 0.8125-0.29688 0.23828-0.14453 0.42969-0.33594 0.57812-0.57812 0.15625-0.23828 0.23438-0.55078 0.23438-0.9375 0-0.30078-0.058594-0.55469-0.17188-0.76562-0.10547-0.21875-0.25-0.39453-0.4375-0.53125-0.17969-0.14453-0.38672-0.25-0.625-0.3125-0.24219-0.0625-0.49609-0.09375-0.76562-0.09375-0.5625 0-1.0703 0.089844-1.5156 0.26562-0.4375 0.16797-0.82812 0.35938-1.1719 0.57812l-0.82812-1.7031c0.17578-0.11328 0.39062-0.23438 0.64062-0.35938s0.53125-0.24219 0.84375-0.35938c0.3125-0.11328 0.64062-0.20703 0.98438-0.28125 0.35156-0.070312 0.72656-0.10938 1.125-0.10938 0.72656 0 1.3594 0.089844 1.8906 0.26562 0.53125 0.17969 0.96875 0.42969 1.3125 0.75 0.35156 0.32422 0.61328 0.70312 0.78125 1.1406 0.16406 0.4375 0.25 0.91406 0.25 1.4219 0 0.60547-0.16797 1.1484-0.5 1.625-0.33594 0.48047-0.76562 0.85156-1.2969 1.1094 0.6875 0.24219 1.2539 0.63672 1.7031 1.1875 0.44531 0.55469 0.67188 1.2656 0.67188 2.1406 0 0.58594-0.10547 1.125-0.3125 1.625-0.19922 0.49219-0.50781 0.91797-0.92188 1.2812-0.41797 0.35547-0.94531 0.63672-1.5781 0.84375-0.63672 0.20703-1.3984 0.3125-2.2812 0.3125z"/>
</symbol>
<symbol id="t" overflow="visible">
<path d="m9.8438-3.5156c0 0.54297-0.10156 1.0469-0.29688 1.5156-0.1875 0.46094-0.46875 0.85938-0.84375 1.2031s-0.84375 0.60938-1.4062 0.79688-1.2109 0.28125-1.9375 0.28125c-0.86719 0-1.5859-0.12109-2.1562-0.35938-0.5625-0.23828-1.0156-0.53906-1.3594-0.90625-0.33594-0.36328-0.57422-0.75391-0.71875-1.1719-0.14844-0.42578-0.21875-0.83203-0.21875-1.2188 0-0.375 0.050781-0.72266 0.15625-1.0469 0.11328-0.32031 0.26562-0.61719 0.45312-0.89062 0.1875-0.26953 0.39844-0.51562 0.64062-0.73438 0.23828-0.22656 0.48828-0.42969 0.75-0.60938-0.57422-0.40625-1.0078-0.84375-1.2969-1.3125-0.28125-0.47656-0.42188-1.0547-0.42188-1.7344 0-0.48828 0.097656-0.95703 0.29688-1.4062 0.19531-0.44531 0.47656-0.84375 0.84375-1.1875 0.36328-0.34375 0.80078-0.61328 1.3125-0.8125 0.51953-0.20703 1.0977-0.3125 1.7344-0.3125 0.73828 0 1.3672 0.10938 1.8906 0.32812 0.53125 0.21875 0.96094 0.5 1.2969 0.84375 0.33203 0.33594 0.57031 0.71094 0.71875 1.125 0.15625 0.41797 0.23438 0.82031 0.23438 1.2031 0 0.69922-0.19531 1.3203-0.57812 1.8594-0.375 0.53125-0.80859 0.95312-1.2969 1.2656 0.75 0.40625 1.3008 0.875 1.6562 1.4062 0.36328 0.53125 0.54688 1.1562 0.54688 1.875zm-6.6875 0.10938c0 0.1875 0.035156 0.39062 0.10938 0.60938 0.082031 0.21094 0.21094 0.40234 0.39062 0.57812 0.17578 0.17969 0.39844 0.32812 0.67188 0.45312 0.28125 0.11719 0.62891 0.17188 1.0469 0.17188 0.375 0 0.70312-0.046875 0.98438-0.14062 0.28125-0.10156 0.50391-0.23828 0.67188-0.40625 0.17578-0.17578 0.30469-0.375 0.39062-0.59375 0.09375-0.21875 0.14062-0.44141 0.14062-0.67188 0-0.35156-0.070312-0.66016-0.20312-0.92188-0.13672-0.26953-0.33594-0.5-0.59375-0.6875-0.26172-0.19531-0.57031-0.36719-0.92188-0.51562-0.35547-0.14453-0.74609-0.27344-1.1719-0.39062-0.44922 0.29297-0.8125 0.64844-1.0938 1.0625-0.28125 0.40625-0.42188 0.89062-0.42188 1.4531zm4.125-6.4688c0-0.16406-0.039062-0.34375-0.10938-0.53125-0.0625-0.19531-0.17188-0.37891-0.32812-0.54688-0.15625-0.16406-0.35547-0.30469-0.59375-0.42188-0.24219-0.11328-0.53125-0.17188-0.875-0.17188s-0.64062 0.058594-0.89062 0.17188c-0.24219 0.10547-0.4375 0.24609-0.59375 0.42188-0.14844 0.16797-0.26172 0.35156-0.34375 0.54688-0.074219 0.1875-0.10938 0.375-0.10938 0.5625 0 0.48047 0.17578 0.9375 0.53125 1.375 0.36328 0.42969 0.97266 0.76562 1.8281 1.0156 0.45703-0.28906 0.81641-0.61719 1.0781-0.98438 0.26953-0.375 0.40625-0.85156 0.40625-1.4375z"/>
</symbol>
<symbol id="q" overflow="visible">
<path d="m8.2031-3.7812c0 0.625-0.10547 1.1836-0.3125 1.6719-0.19922 0.48047-0.47656 0.89062-0.82812 1.2344-0.34375 0.33594-0.74609 0.58984-1.2031 0.76562-0.44922 0.17578-0.92188 0.26562-1.4219 0.26562-0.49219 0-0.96484-0.089844-1.4219-0.26562-0.46094-0.17578-0.85938-0.42969-1.2031-0.76562-0.34375-0.34375-0.62109-0.75391-0.82812-1.2344-0.21094-0.48828-0.3125-1.0469-0.3125-1.6719s0.10156-1.1797 0.3125-1.6719c0.20703-0.48828 0.48438-0.89844 0.82812-1.2344 0.34375-0.34375 0.74219-0.60156 1.2031-0.78125 0.45703-0.17578 0.92969-0.26562 1.4219-0.26562 0.5 0 0.97266 0.089844 1.4219 0.26562 0.45703 0.17969 0.85938 0.4375 1.2031 0.78125 0.35156 0.33594 0.62891 0.74609 0.82812 1.2344 0.20703 0.49219 0.3125 1.0469 0.3125 1.6719zm-0.95312 0c0-0.45703-0.070312-0.875-0.20312-1.25-0.13672-0.375-0.33594-0.69531-0.59375-0.96875-0.25-0.26953-0.54688-0.47656-0.89062-0.625-0.33594-0.14453-0.71094-0.21875-1.125-0.21875-0.41797 0-0.79688 0.074219-1.1406 0.21875-0.33594 0.14844-0.625 0.35547-0.875 0.625-0.25 0.27344-0.44531 0.59375-0.57812 0.96875-0.13672 0.375-0.20312 0.79297-0.20312 1.25 0 0.46094 0.066406 0.875 0.20312 1.25 0.13281 0.375 0.32812 0.69922 0.57812 0.96875 0.25 0.27344 0.53906 0.48047 0.875 0.625 0.34375 0.14844 0.72266 0.21875 1.1406 0.21875 0.41406 0 0.78906-0.070312 1.125-0.21875 0.34375-0.14453 0.64062-0.35156 0.89062-0.625 0.25781-0.26953 0.45703-0.59375 0.59375-0.96875 0.13281-0.375 0.20312-0.78906 0.20312-1.25zm-1.9375 2.0156c-0.14844-0.30078-0.29297-0.57812-0.4375-0.82812-0.14844-0.25781-0.28906-0.47266-0.42188-0.64062h-0.57812v1.4688h-0.92188v-3.9844c0.22656-0.050781 0.45312-0.085938 0.67188-0.10938 0.21875-0.03125 0.41016-0.046875 0.57812-0.046875 0.60156 0 1.0547 0.11719 1.3594 0.34375 0.3125 0.23047 0.46875 0.57422 0.46875 1.0312 0 0.24219-0.0625 0.45312-0.1875 0.64062-0.11719 0.1875-0.28906 0.33594-0.51562 0.4375 0.14453 0.21094 0.30078 0.45312 0.46875 0.73438 0.16406 0.27344 0.33203 0.58984 0.5 0.95312zm-1.4375-2.2031h0.29688c0.28906 0 0.51953-0.035156 0.6875-0.10938 0.16406-0.082031 0.25-0.23828 0.25-0.46875 0-0.20703-0.078125-0.35156-0.23438-0.4375-0.15625-0.082031-0.35547-0.125-0.59375-0.125h-0.20312c-0.0625 0-0.13281 0.011719-0.20312 0.03125z"/>
</symbol>
<clipPath id="an">
<path d="m0.97266 0.36719h25.027v19.633h-25.027z"/>
</clipPath>
<clipPath id="am">
<path d="m25 0.36719h24.352v19.633h-24.352z"/>
</clipPath>
<clipPath id="al">
<path d="m39 14h10.352v29h-10.352z"/>
</clipPath>
<clipPath id="ak">
<path d="m25 36h24.352v20.152h-24.352z"/>
</clipPath>
<clipPath id="aj">
<path d="m0.97266 36h25.027v20.152h-25.027z"/>
</clipPath>
<clipPath id="ai">
<path d="m0.97266 14h10.027v29h-10.027z"/>
</clipPath>
<clipPath id="ao">
<rect width="50" height="57"/>
</clipPath>
<g id="surface5" clip-path="url(#ao)">
<g clip-path="url(#an)">
<path d="m25.164 0.36719v10.785l-14.82 8.6094-9.3711-5.4492z" fill="#a0c434" fill-rule="evenodd"/>
</g>
<g clip-path="url(#am)">
<path d="m49.352 14.312-9.3711 5.4492-14.816-8.6094v-10.785z" fill="#acd338" fill-rule="evenodd"/>
</g>
<g clip-path="url(#al)">
<path d="m49.352 42.207-9.3711-5.4492v-16.996l9.3711-5.4492z" fill="#1a69c5" fill-rule="evenodd"/>
</g>
<g clip-path="url(#ak)">
<path d="m25.164 56.152v-10.785l14.816-8.6094 9.3711 5.4492z" fill="#2d8fe7" fill-rule="evenodd"/>
</g>
<g clip-path="url(#aj)">
<path d="m0.97266 42.207 9.3711-5.4492 14.82 8.6094v10.785z" fill="#e91f5d" fill-rule="evenodd"/>
</g>
<g clip-path="url(#ai)">
<path d="m0.97266 14.312 9.3711 5.4492v16.996l-9.3711 5.4492z" fill="#a4063d" fill-rule="evenodd"/>
</g>
<path d="m10.344 19.762 14.82-8.6094 14.816 8.6094-14.816 8.4961z" fill="#f0f5e1" fill-rule="evenodd"/>
<path d="m25.164 28.258 14.816-8.4961v16.996l-14.816 8.6094z" fill="#cddae5" fill-rule="evenodd"/>
<path d="m10.344 19.762 14.82 8.4961v17.109l-14.82-8.6094z" fill="#fff" fill-rule="evenodd"/>
</g>
</defs>
<g id="surface1">
<use transform="translate(56 24)" xlink:href="#surface5"/>
<g>
<use x="114.651" y="70.191" xlink:href="#ah"/>
<use x="156.82883" y="70.191" xlink:href="#p"/>
<use x="189.410645" y="70.191" xlink:href="#ag"/>
<use x="214.181752" y="70.191" xlink:href="#af"/>
<use x="251.673156" y="70.191" xlink:href="#p"/>
<use x="284.254971" y="70.191" xlink:href="#ae"/>
<use x="315.107273" y="70.191" xlink:href="#ad"/>
<use x="347.968042" y="70.191" xlink:href="#ac"/>
</g>
<g>
<use x="18.588" y="106.686" xlink:href="#ab"/>
<use x="31.53545" y="106.686" xlink:href="#n"/>
<use x="42.817146" y="106.686" xlink:href="#a"/>
<use x="52.925242" y="106.686" xlink:href="#e"/>
<use x="61.85974" y="106.686" xlink:href="#l"/>
<use x="72.876429" y="106.686" xlink:href="#c"/>
</g>
<g>
<use x="88.095361" y="106.686" xlink:href="#s"/>
<use x="102.102836" y="106.686" xlink:href="#c"/>
<use x="112.911307" y="106.686" xlink:href="#d"/>
<use x="120.823637" y="106.686" xlink:href="#r"/>
<use x="133.260003" y="106.686" xlink:href="#c"/>
<use x="144.068474" y="106.686" xlink:href="#a"/>
<use x="154.17657" y="106.686" xlink:href="#b"/>
<use x="165.250047" y="106.686" xlink:href="#k"/>
</g>
<g>
<use x="173.901" y="100.709" xlink:href="#q"/>
</g>
<g>
<use x="187.191" y="106.686" xlink:href="#j"/>
<use x="192.41541" y="106.686" xlink:href="#b"/>
</g>
<g>
<use x="207.899348" y="106.686" xlink:href="#a"/>
</g>
<g>
<use x="222.417906" y="106.686" xlink:href="#k"/>
<use x="231.068468" y="106.686" xlink:href="#d"/>
<use x="238.980799" y="106.686" xlink:href="#i"/>
<use x="246.609194" y="106.686" xlink:href="#j"/>
<use x="251.833603" y="106.686" xlink:href="#e"/>
<use x="260.768101" y="106.686" xlink:href="#d"/>
<use x="268.680431" y="106.686" xlink:href="#aa"/>
<use x="274.30235" y="106.686" xlink:href="#z"/>
<use x="284.126511" y="106.686" xlink:href="#y"/>
<use x="290.089153" y="106.686" xlink:href="#e"/>
</g>
<g>
<use x="298.815431" y="106.686" xlink:href="#x"/>
<use x="310.134985" y="106.686" xlink:href="#b"/>
<use x="321.208462" y="106.686" xlink:href="#w"/>
<use x="334.080195" y="106.686" xlink:href="#b"/>
<use x="345.153672" y="106.686" xlink:href="#c"/>
<use x="355.962142" y="106.686" xlink:href="#o"/>
</g>
<g>
<use x="371.6543" y="106.686" xlink:href="#k"/>
<use x="380.304862" y="106.686" xlink:href="#b"/>
<use x="391.378339" y="106.686" xlink:href="#a"/>
<use x="401.486435" y="106.686" xlink:href="#n"/>
</g>
<g>
<use x="94.277" y="129.6" xlink:href="#a"/>
<use x="104.385097" y="129.6" xlink:href="#h"/>
<use x="120.758699" y="129.6" xlink:href="#o"/>
<use x="132.040395" y="129.6" xlink:href="#g"/>
<use x="142.792078" y="129.6" xlink:href="#m"/>
</g>
<g>
<use x="157.954223" y="129.6" xlink:href="#f"/>
</g>
<g>
<use x="166.339779" y="129.6" xlink:href="#a"/>
<use x="176.447876" y="129.6" xlink:href="#i"/>
<use x="184.076271" y="129.6" xlink:href="#h"/>
<use x="200.449873" y="129.6" xlink:href="#g"/>
<use x="211.201557" y="129.6" xlink:href="#m"/>
</g>
<g>
<use x="226.363702" y="129.6" xlink:href="#f"/>
</g>
<g>
<use x="234.749257" y="129.6" xlink:href="#a"/>
<use x="244.857354" y="129.6" xlink:href="#i"/>
<use x="252.485749" y="129.6" xlink:href="#h"/>
<use x="268.859351" y="129.6" xlink:href="#l"/>
<use x="279.876041" y="129.6" xlink:href="#v"/>
</g>
<g>
<use x="291.858111" y="129.6" xlink:href="#f"/>
</g>
<g>
<use x="300.243667" y="129.6" xlink:href="#j"/>
<use x="305.468076" y="129.6" xlink:href="#u"/>
<use x="316.21976" y="129.6" xlink:href="#t"/>
<use x="326.971443" y="129.6" xlink:href="#g"/>
</g>
</g>
</svg>
