<?xml version="1.0" encoding="UTF-8"?>
<!--

    Licensed to the Apache Software Foundation (ASF) under one
    or more contributor license agreements.  See the NOTICE file
    distributed with this work for additional information
    regarding copyright ownership.  The ASF licenses this file
    to you under the Apache License, Version 2.0 (the
    "License"); you may not use this file except in compliance
    with the License.  You may obtain a copy of the License at

      http://www.apache.org/licenses/LICENSE-2.0

    Unless required by applicable law or agreed to in writing,
    software distributed under the License is distributed on an
    "AS IS" BASIS, WITHOUT WARRANTIES OR CONDITIONS OF ANY
    KIND, either express or implied.  See the License for the
    specific language governing permissions and limitations
    under the License.

-->
<svg width="444px" height="512px" version="1.1" viewBox="0 0 444 512" xmlns="http://www.w3.org/2000/svg">
<title>Apache NetBeans Logo</title>
<description>Apache NetBeans Logo</description>
<g fill-rule="evenodd" stroke-width="0">
<path d="m222 0v99l-136 79-86-50 222-128z" fill="#A1C535"/>
<path d="m444 128-86 50-136-79v-99l222 128z" fill="#ADD439"/>
<path d="m444 384-86-50v-156l86-50v256z" fill="#1B6AC6"/>
<path d="m222 512v-99l136-79 86 50-222 128z" fill="#2E90E8"/>
<path d="m0 384 86-50 136 79v99l-222-128z" fill="#EA205E"/>
<path d="m0 128 86 50v156l-86 50v-256z" fill="#A5073E"/>
<path d="m86 178 136-79 136 79-136 78-136-78z" fill="#F1F6E2"/>
<path d="m222 256 136-78v156l-136 79v-157z" fill="#CEDBE6"/>
<path d="m86 178 136 78v157l-136-79v-156z" fill="#fff"/>
</g>
</svg>
